<svg xmlns="http://www.w3.org/2000/svg" viewBox="0 0 288.99 51.7"><title>Asset 1</title><g id="Layer_2" data-name="Layer 2"><g id="Layer_1-2" data-name="Layer 1"><path d="M123.52.14h2.72V51.2h-2.86L107.65,8.84,107,9v42.2l-2.76.12V.11h3.07l15.6,42,.62-.07Z"/><path d="M27.82,51.17H25.05V.15L27.75,0v24H43.87V.15h3v51H44V27.09H27.82Z"/><path d="M190.71,0h3.38c3.7,17,7.39,33.93,11.13,51.11h-3.08q-1.51-6.88-3.08-14H185.57c-1,4.61-2,9.28-3,14.09h-3Zm7.82,34.09c-2-9.61-4-19-5.91-28.33l-.6,0-5.89,28.31Z"/><path d="M254.4,51.7h-3.06c-3.53-17.08-7.08-34.21-10.67-51.54h3.14q4.38,22.08,8.76,44.2l.72,0q4.4-22.12,8.81-44.3h3Z"/><path d="M274.74,24.15h12.6c.08,1,.13,1.66.21,2.68H274.78V48.52h14.08c.05,1,.09,1.75.13,2.63H271.76V.14h16.91V2.82H274.74Z"/><path d="M55.7.13H72.43V2.84H58.6V24H71.23l.34,2.78H58.64v21.6H72.78l.24,2.7H55.7Z"/><path d="M0,2.88V.14H19.4l.12,2.61H11.17V51.17H8.22V2.88Z"/><path d="M152.6,2.82h-8.26V.14h19.35V2.78h-8.1V51.17h-3Z"/><path d="M213.63,2.84h-8.29L205.17.15h19.58L225,2.76h-8.39V51.17h-3Z"/><path d="M138.33,51.17h-2.9V.16h2.9Z"/><path d="M92.19.14h2.67v51H92.19Z"/><path d="M169.84.11l2.48-.1V51.19h-2.48Z"/><path d="M230.87.11h2.57V51.16h-2.57Z"/></g></g></svg>